<svg width="50" height="50" viewBox="0 0 50 50" fill="none" xmlns="http://www.w3.org/2000/svg"><path d="M49.8 19.0945V37.5936H47.2703V22.6029V22.2905L46.9866 22.4213L41.3605 25.0157L41.175 25.1013L41.2644 25.2849C42.426 27.6701 43.0786 30.3466 43.0786 33.1734V33.982L25 42.3443L6.92139 33.982V33.1734C6.92139 30.3466 7.57401 27.67 8.73557 25.2849L8.82501 25.1013L8.63951 25.0157L0.2 21.1238V19.0945L25 7.65774L49.8 19.0945ZM24.916 39.5181L25 39.557L25.084 39.5181L40.4054 32.4311L40.5292 32.3739L40.5211 32.2377C40.3956 30.131 39.8476 28.1364 38.9627 26.3363L38.8766 26.1612L38.6994 26.2429L25 32.5605L11.3006 26.243L11.1234 26.1613L11.0373 26.3364C10.1523 28.1365 9.60442 30.1311 9.47887 32.2378L9.47076 32.374L9.59455 32.4312L24.916 39.5181ZM24.9162 29.7361L25 29.7747L25.0838 29.7361L45.5658 20.2908L45.9596 20.1092L45.5658 19.9276L25.0838 10.4822L25 10.4435L24.9162 10.4822L4.43421 19.9276L4.04038 20.1092L4.43422 20.2908L24.9162 29.7361Z" fill="#FF9F31" stroke="white" stroke-width="0.4"></path></svg>