<svg width="22" height="20" viewBox="0 0 22 20" xmlns="http://www.w3.org/2000/svg"><path d="M2.025 1.81h17.95c.978 0 1.725.718 1.725 1.542 0 .823-.746 1.54-1.725 1.54H2.025C1.046 4.893.3 4.176.3 3.353c0-.824.746-1.541 1.725-1.541zM2.025 8.459h17.95c.978 0 1.725.717 1.725 1.542 0 .823-.746 1.54-1.725 1.54H2.025c-.979 0-1.725-.717-1.725-1.54 0-.825.746-1.542 1.725-1.542zM2.025 15.107h17.95c.978 0 1.725.718 1.725 1.542 0 .823-.746 1.54-1.725 1.54H2.025C1.046 18.19.3 17.473.3 16.65c0-.824.747-1.542 1.725-1.542z" fill="#090B17" stroke="#fff" stroke-width=".6"></path></svg>