<svg width="46" height="42" viewBox="0 0 46 42" fill="none" xmlns="http://www.w3.org/2000/svg"><path d="M42.5898 7.79688H33.7568V3.73438C33.7568 2.22656 32.377 1 30.6807 1H15.6514C13.9551 1 12.5752 2.22656 12.5752 3.73438V7.79688H3.74219C2.0459 7.79688 0.666016 9.02344 0.666016 10.5312V38.2656C0.666016 39.7734 2.0459 41 3.74219 41H42.5898C44.2861 41 45.666 39.7734 45.666 38.2656V10.5312C45.666 9.02344 44.2861 7.79688 42.5898 7.79688ZM15.2119 3.73438C15.2119 3.51875 15.4088 3.34375 15.6514 3.34375H30.6807C30.9232 3.34375 31.1201 3.51875 31.1201 3.73438V7.79688H15.2119V3.73438ZM43.0293 38.2656C43.0293 38.4813 42.8324 38.6562 42.5898 38.6562H3.74219C3.49961 38.6562 3.30273 38.4813 3.30273 38.2656V20.9984L19.0466 26.4766V28.8383C19.0466 29.9156 20.0318 30.7914 21.2438 30.7914H25.0882C26.3002 30.7914 27.2854 29.9156 27.2854 28.8383V26.4766L43.0293 20.9984V38.2656ZM21.6833 28.4477V24.1617H24.6487V28.4477H21.6833ZM43.0293 18.4812L27.2854 23.9586V23.7711C27.2854 22.6938 26.3002 21.818 25.0882 21.818H21.2438C20.0318 21.818 19.0466 22.6938 19.0466 23.7711V23.9586L3.30273 18.4812V10.5312C3.30273 10.3156 3.49961 10.1406 3.74219 10.1406H42.5898C42.8324 10.1406 43.0293 10.3156 43.0293 10.5312V18.4812Z" fill="#FF9F31" stroke="white" stroke-width="0.3"></path></svg>